<svg width="1440" height="900" viewBox="0 0 1440 900" fill="none" xmlns="http://www.w3.org/2000/svg">
  <rect width="1440" height="900" rx="28" fill="#F4F6FA"/>
  <rect x="34" y="34" width="1372" height="832" rx="22" fill="#FFFFFF" stroke="#E5EAF2"/>
  <rect x="66" y="66" width="260" height="768" rx="16" fill="#F7F9FC"/>
  <rect x="90" y="102" width="212" height="18" rx="9" fill="#DDE5F2"/>
  <rect x="90" y="142" width="160" height="12" rx="6" fill="#C8D4E9"/>
  <rect x="90" y="182" width="212" height="40" rx="10" fill="#EAF0FA"/>
  <rect x="90" y="240" width="212" height="40" rx="10" fill="#EAF0FA"/>
  <rect x="90" y="298" width="212" height="40" rx="10" fill="#EAF0FA"/>
  <rect x="90" y="356" width="212" height="40" rx="10" fill="#EAF0FA"/>
  <rect x="354" y="66" width="1018" height="96" rx="16" fill="#F8FAFD"/>
  <rect x="390" y="100" width="340" height="18" rx="9" fill="#DDE5F2"/>
  <rect x="390" y="130" width="260" height="12" rx="6" fill="#C8D4E9"/>
  <rect x="354" y="186" width="320" height="200" rx="16" fill="#F8FAFD"/>
  <rect x="692" y="186" width="320" height="200" rx="16" fill="#F8FAFD"/>
  <rect x="1030" y="186" width="342" height="200" rx="16" fill="#F8FAFD"/>
  <rect x="390" y="224" width="108" height="12" rx="6" fill="#C8D4E9"/>
  <rect x="390" y="248" width="244" height="54" rx="10" fill="#EAF0FA"/>
  <rect x="728" y="224" width="108" height="12" rx="6" fill="#C8D4E9"/>
  <rect x="728" y="248" width="244" height="54" rx="10" fill="#EAF0FA"/>
  <rect x="1066" y="224" width="108" height="12" rx="6" fill="#C8D4E9"/>
  <rect x="1066" y="248" width="268" height="54" rx="10" fill="#EAF0FA"/>
  <rect x="354" y="410" width="1018" height="424" rx="16" fill="#F8FAFD"/>
  <rect x="390" y="444" width="226" height="14" rx="7" fill="#C8D4E9"/>
  <rect x="390" y="478" width="946" height="58" rx="12" fill="#FFFFFF" stroke="#E5EAF2"/>
  <rect x="414" y="500" width="190" height="14" rx="7" fill="#DDE5F2"/>
  <rect x="390" y="554" width="946" height="58" rx="12" fill="#FFFFFF" stroke="#E5EAF2"/>
  <rect x="414" y="576" width="240" height="14" rx="7" fill="#DDE5F2"/>
  <rect x="390" y="630" width="946" height="58" rx="12" fill="#FFFFFF" stroke="#E5EAF2"/>
  <rect x="414" y="652" width="170" height="14" rx="7" fill="#DDE5F2"/>
  <rect x="390" y="706" width="946" height="58" rx="12" fill="#FFFFFF" stroke="#E5EAF2"/>
  <rect x="414" y="728" width="210" height="14" rx="7" fill="#DDE5F2"/>
</svg>
